<mxfile host="app.diagrams.net" modified="2023-08-30T12:56:46.183Z" agent="Mozilla/5.0 (Windows NT 10.0; Win64; x64) AppleWebKit/537.36 (KHTML, like Gecko) Chrome/115.0.0.0 Safari/537.36" etag="dFwlChXHHDfTmz47sU8X" version="21.6.6" type="github">
  <diagram name="Page-1" id="ULa3-XAwzWhkIOeS187i">
    <mxGraphModel dx="1647" dy="861" grid="1" gridSize="10" guides="1" tooltips="1" connect="1" arrows="1" fold="1" page="1" pageScale="1" pageWidth="850" pageHeight="1100" math="0" shadow="0">
      <root>
        <mxCell id="0" />
        <mxCell id="1" parent="0" />
        <mxCell id="y5FC7I3UabfgmGUV36cR-6" style="edgeStyle=orthogonalEdgeStyle;rounded=0;orthogonalLoop=1;jettySize=auto;html=1;entryX=1;entryY=0.5;entryDx=0;entryDy=0;" edge="1" parent="1" target="y5FC7I3UabfgmGUV36cR-3">
          <mxGeometry relative="1" as="geometry">
            <mxPoint x="605" y="115.00000000000013" as="sourcePoint" />
          </mxGeometry>
        </mxCell>
        <mxCell id="y5FC7I3UabfgmGUV36cR-7" style="edgeStyle=orthogonalEdgeStyle;rounded=0;orthogonalLoop=1;jettySize=auto;html=1;" edge="1" parent="1" source="y5FC7I3UabfgmGUV36cR-3" target="y5FC7I3UabfgmGUV36cR-5">
          <mxGeometry relative="1" as="geometry" />
        </mxCell>
        <mxCell id="y5FC7I3UabfgmGUV36cR-3" value="" style="shape=image;verticalLabelPosition=bottom;labelBackgroundColor=default;verticalAlign=top;aspect=fixed;imageAspect=0;image=data:image/png,iVBORw0KGgoAAAANSUhEUgAAAV0AAACQCAMAAACcV0hbAAAAsVBMVEX////jKy1ygIvhAADoZGX53NzhCg7iIybiFxrjIybjKCriGh3lSkviERTiHyJdbnv0urr2yMnyrq5reobGy8+/xMnwoaLzs7Py8/TsgoLtjY6Vn6fX2t2Hk5zlQ0Th4+X87e3q7O71wsL30dH+9/fqdHWjq7L75eXulJXkOjzkMDLmUFLoXV7shYX3z8/reHnwpKV6iJLoYmPnV1izur/pbW5YaniosLbCyMxNYnGOmaGHNOB4AAAZxElEQVR4nO1diX/iLBOOxZDLxKs1aq2mGutd7WG72///D/uAXAOBGG12v3d3fX7voZUQeDIMwzBMNO2KK6644oorrrjiiiuuuOLXYnL7/nT/8PLj/92Ovw+j94cuxc1N9+7/3Za/DKMnxmuEK7uV4u4mo/bKbrV456i9slsl7kRur+xWhslNjtsru1Xhs5nn9spuNei/SAT3ym41GMm5vbJbBX5ItcKV3UrwrpLcK7vfRwG5VbIb6JVV9QfhroDcKtltIL+yuv4Y3Cp1brXs7swa2ldV2Z+CSSG532A3DIIgzL5OUa1Wc8ZBBU3+g1CkFi5kN5wOtx5CGCOExgM/oH8LKLm1muU+y68Jpsvjil6A8Op16C/Ou+Ni9vw8K33Nwt+9rumtkDk+LqfBefc6B1+Vs9vaItez7FoE2zPRdqZpKyP+jpb5Sxa9FXKd5Brb8Ezs7Wb5crPBLsYgmyH15QZhlwCj1a59snn6zsKmZyT3shwXrZbig+lxkFQ64wpIusTw4wS5Z7PbM12rJsBCx72TfnNfQ/6S2RY5tniN7eFVS6y8hbwY6QQ5bSDHyC5ynV5h81or7OXv5aA3/lkekJPBRPl6LBMUkAkMRb+QXLY7cdbOT8sxxaZH/ELG8QBestgiQ3pNzXZXgvy20tpjEvUxFi62HdxRNu955eaoTQRgG8CSG1itsxMr6sFu2ivF7Qr0Qrd7/2NShlGAOlY0HsLgGtNTccvajfh+Zex67AkNpRfjN2FwJNijguZZnL0YTxMxUMBXFGLuV4Udr/Qu3HRfbs/ilWJhe6e5JZ2HTd26xYXNDbxDxq7xSvrYkA+UmufJJrhg7ciLpyzBMXWADbNe+aoGsKOmSuu+qLi9GSVN0nU9UFwtQC8juKQP0+yScHXyeXhQ0jN2yWhceDkFn/7q5unVRR2Sh3sE5RuwOOJU1AIKtlIvqES3+RlV0ttiYlaRfzfL04vYRdGwy2CCsR6uT3aY0DuWsVszF0UP0/ZE5aCXaZ4LpDdQU/jGEa+iRiG6XSa4cDI2HJSfwHmE+WlfBqMBrhkrhQ/CmcvYrZmF97MafPOCcgMLzog9qBtcoJTbUOs6QwUhE4W//FGTTMa2u5YYoBkapZjiZGou0YO2nWcBpQ+2pVC0Eri8ZbbKjxJbeq8AdAlcYzvZ39fgMnutIuReym63r8lncnEC59ATZifbIcY9MfIFifbAk24h8RKMnNV45SLhKts8xa6EJn6e3wkP0jAxssdjsmBzec1vgFmUU69OOnd1YFeRSuT68n00KrlH+UxuvqnI5Q2YmoHHvRnpXTDrrfgxgLKFMG96GnjV0yPBDmfLNfdjOvpk7FrkaazIGlqgqeZlCoUoXf4S9NaJtWXQ3rlcpRgszDiRSZ8W/GPeEk4gXaZ1qSG2VQ1Ar6Goa851zW2AJ/o85izvdIQNHeUlBFPOfEKhil2yDJyyH8P2HPHKCQgvN//b6MhbFAe4ujTAJKqNwXXJ04LttmsqcrUHGbn3lCq1dvO20qoE21tYjC65ERZPyyF/ySFX5xzIiHlQsOu+ZhRqQZ0bctl8w01DhplzG4RjIBwYPGZON0TGAddVpV6QKwaqdA/cQkTsjtR0HkLRhQZtBJ9rUSQ4S042ZY6zQUZlMneI7IoPpcdZUekwgcta2w4k9wLC7UEf9BLcMDJ36kDOnYGkqggyY5e6bAQVKkJq3kGZwZINCKjA4tbDiQvJPVugy/FdBXZRzkrkNGUihZwEujJytRDYdxj+sALNxERsZqAu21KSqz3J2CV/3xabVpxeitGG5M3zv5NKgfQwJQovUZmMgJXYacOzKxtHnGjFv8NhgnMDK4KftYfzQMP5kGpZqIkVQsEgWUp03/mHI4WkfVAxYKkHBQ4Ikwo3WKmrReA17YoR6XuOXUM2xUJ1nhQA8ic6DDJkfkmHe2hDuIA5TPODUA6Z6D7yD18KSadA8z2FHO4zNi26mgcWqpmf0WIAMrH4B9USdAeedOSXhU8WK1f02XUWP3PDtUMN9BSuL3KQLdReTmpdaa+gvCDF9osOpkpX6LGyjUF2EWb1QnYNufkCbxRxCeTNlqi1GEBVuXyF3EwJelq0DXKbZ5cqhs7ptWbO+w86pHQYgZFHDVHQF7sxayvwnDXGbYvsugoNathCEaB2rf2z6l6drJTgzRXXeRG8o+zmCSQRItR7czztLjA2QlVAODzl2mWeVUymjQM0yV0lskJmR2RXsh3DAHRQdBHskqW8FZz5hMFZk6yzbVPhoY8gMRmo2rVKuJLEfh2AX1C569LLmm+2OO1YCtFUA9jNPeO0NY5w0biUdwzAFca8bKLPG/Uc7qX2WHha7SY6MAMYemLDMrQyQXQOZYYIj2hQAHaVowSWYVPsiR2JPEzRjB7kqijWC9J1MGF3UbROS+AK6z9gkIk/ZQCalijuE0Z1HtZcYE659wtuFG2+lREYDvkBmPPBuYV6Qe4552dcJUQBLcXuM8fupsSmBAdmxnF7EyodVAG7ORNxJvgMzWK9UCm7UDMoIm24qY9ohv80u06O3UBg1z21EfYddgUK+QlLAWDqkcXa23+Z3XzVDTFoQrkjEUOud0ssJvIWCyDOUe0+c+qjrdXPZTci6iJ2T+zp52GKfihx46XIax7hS8JuX9PKyC4SVDroj2IBpXF2EbE5gFFas40SMEWboTy73DZYmXuJnpSFzCIr3GSUbarR1USJyTy3HoOGhsh8AmHpC1S1vWqUwPhwMbvAP2ePy9xLjK8aSwaabRey+ylh947ToSrkLU3RASYBsPGpl8QXjdJyuIhd4I47OdfLsJQ6Bwo855o8nP9BPgoE4JxdAJS+St8DNwOdkku5JvK4iN1OiSVIAXQFI9L9lASyrYlmXz4MONhGri7onnalvYYlmButhFtNgovYnYEn6ZW+VYqVYiFdWNejzL/7g1uxyiFxx87gXCgjS8/5tIHBe4ZquIhd+CRVjjU1oPe8xk1K8l2YGLL99hdN8BZLHpnMaQw3yWwrEH9ewKikqINQv4vxm2pcxi7YEDhpqIrg9ILZ42SvyMMrMcmY1dAu1rxYtl7gYhMMT7CHZzD0I1azC8kOzWlcxi6YQk9MRnmshaZvFNFPIuRHAMkP+yKzQR7QwC9CbATHerjjIxfiyQDqd0flcVoKg+8ydrnVGlZ5f7ayCjnPObVxuVm/wFMmjdGj2xOyiLaUOENuz+55f62Dd89xhMwAcz85yVafD8eYI39mr67Li9qF7HLBzFhqN+grT3JWkfPsRrVx9lmBl1ceo/dIKLFU9NryaADJCtpzkbciLRaiu6zM/OIOh1hOTuEEQxq5xNN7Ibu8mWmKqwXC7ZFG9+bDI+CuRKIHOF2h9kTKAhoi3RDU5FsHhqM0ng4SUyMfmWits9ZwwksDWA+g8sDfoqgNLhS1C9kVhpaNNz5gRT+M4wg0kV7Oa56sj3l5rqsIkUeedx/ob28yu8wdF/iM30rs5ZhcBYJlbTvIPi47vn9YHm1kpj/CkXwpu6HgPjFMtNqzew23Ls4sHn6kP0Mes3147lFJJ3kGqejG9B6QyJanOpUVd8A+tQwxEG/Y5peFtuWYBA6/uYezyy5lV2vlvFO2R+/lCGcvOHo53ZWZjSEX9S6PjtGUiQO6LzQ+OhwA+aGh/fNAUU2MwCmm16iLaqVTxiFHO5A+1ovZlca5ywBsWC5q1gVrKO5RWSqvoPIoYHRwIuy8IeyajulitDmc4FZTa+sY9jo3Jw9Kul7TkNXL2dUaJXehU9ciZ/fz0XOc718WlcigmNdoGG8/KqFPO4dOq2zWim2hMNpuIxAuUMS4C3BSdf0NdrXTh7co3NTC5k4X8PFHvIXEnb8DkMf2M3qbn48lKYXo4MIBaOTsw0EJ5YCzefk77Gqb02FG4Ij4ET4McSuC26ywVOcdJE7elN/uw4/zCSYLs8KTVUjkpFN0kJW1HUZAf4tdbXDqyJrjpFp3ykWP5aI0OceZ3C2onUjO0CUMP32OFJcqEB5WyMwfI0/pFS2YxVh1MJrC4A9Hf49dre0Via8FTrKGnMrKu2t4p6/KDXU6gcAF2S8WnfkaYZoyQTSuajIHpW+7Cvn10IZ3UX+TXbKOxYpDhMTahmdV6lAvyNwJ3ELDUkVdyY6m8PRemLllobfb7VZv7vF+BuGEe4RWAznifp7tuXggTqc+MhPkdEyCdlYGS+KXD2ucMx0NBxvLQH4feiuZSeu4sITCNVScoOEb7KaY7XnV6sosmMVhS48OepZlWBax8115mhC9k0FlyCxAGakDVl82EKbrCMMw6L0waiwFz0OHg3SLR+eKqAK8JXG81bJL+svN1sozXvq0t5vXt6/H/dKfnYjT+i701nJwrL+9HgfL0vbmRVAavZWxKywb8ruefzMeig2HSvKRwVXlJRuzfzB+vexyntJzttj/AhTObBWxC/e2VDH5fymK6K0qUyGMdDozldufjr4s43m17AK/kjqEWtW8yWg06ReVeJwU/17FPb4B5dRWFbsDLsI0Qf8rTso14hfco6/s891Lk+Ema8n7JywcF+gCx9PjF5/s6yuq/v4pwmfy/6QZ711WxccFmaxKQWWYlWB3usxS9ikHPYzfzTxl/Y+Y1dsmJzc/PpJPk27z/vax338cPTVvkjL3D6Bos/l0O3l8HL3ffDylV31wT6v/EbH28MXw0I0/xM9wRKoYkXtMbr8+HrRfAsWyogS7Q5zl7FOGp4DdKBC73m8m7HZfuMY00wIvKe39l278GbB7n1FKdwrjApMmJ7v9JieTE/5RTprZSJnw7agOfal2KMEuiB5Vn1cDehfklwDsssQbCVJ277uwkiRNWsbuE8/bVyl2R03Ot/oCCX28ucSxXQa3+VellGEXntFT7kDLbYaM3eZ7E9wpZbfJadgEKbujD3maynPYFX78hfjM8VuCXXiUReXqhEfvgb0L2NU+ASMJu/2mlL2U3RuFmjyHXaHsr0Rf5LeMzQDkUpW0AAZQgx1AwG6f2C2pOsxk911WW8LuSEXMOew+/jbZpfjxAgkuw27jZMINGHgD43U5drVsRgF6V2aDJuw+3ShadJbeval+IitaLz2yNwOWZ5c7bCFLMMFtlMDDhDy7k2Yy/2c2Q7crkayE3Zun/G8MZ7E7ad6cub11EgdlRo+oPaP3r5sm4bhZgl0+p2c+2G3K71DD23DsEjP3NvmalrhvNr/uRrwEJ+zKtbKW16WF7GqPD83m/V2V2tfPk5DHI1keljFQ3rh9G/zKDYxgzpHLOSAFdomBNYm/gjJ3X3Ql9gQIStlN//YeI/7DpPljAjAqZpeNVroafKpKhn2zDL0lIWQwsNBbknQ/aB2FiDTOqhDZ1V668Vf+Bo+3n2S5m+qBPLs3LwzdeF0wiVa2Kbon2I3u8XTTlM+iZ8M388EFl0M8REizWI632zFGYo553qjIsduPggRFdtlPn+lSOGVXVFtPCbvNUR/g8ZTsJnh8alayFKYO1+KoxnMgO19sG4Zkd5uPGcyxq00+PjU5u9R2itdzCbsv4qyWsXvGrMbhthLpZe5st+hQ0FkoG88oxDrl2dXu6MwmZ1d7j0sl7H52hQLfZ1dYe1+IaLOgujfD7EslHhbOQcjY1e5J3xXsJqQl7AqusErYFbx1lyHeijHw6beLlEO9BL2m6IaQsau93AB7lysusss7YLQL2eXvUSW7wnsAvoP5SeXg5kKGpOz2m/cJu3cfXFfvBM0Qa+kMl7D7xKuCp+o0A9MOdkUBBr3iGEPZG36k7JLevyRdTD22rHRicGUeyHeO3knixjzPz/DAfatsVku6Pa8m9EVXvuiFagVbsp0mZ5e+kTv+9AgWi6Mbiff8/eMhIbL/9JH4iM9cCWfm8G2zEqcD3AKveaows3NxMOUxhrYpP+OoYJfMbOBj8/7HaHT7efPxINv5Gd2QNdbd7e37w0dG0nmzWv+BLgVHox9P3Y97rQr4/CRkOhUtLTorJMYY2g6uKbwa/Z8Juz/5uQS4xh7f2a7ky1NG2BcnYCO6xmp2vwCDk5/8vtpPziEx+inaDJPP6B7vFW1MCOwS6XJ6FemH3obFGHqW5bEQw7EYYgjQz32oBv1zvlYPkV0WIJwLmL0Uequ32x+P+13vl4cz/ieRZ5fqX7zq/WOBMr8GUnaZAK+W/1QI6C+Bgl1GsIs2w5b+L47oqqBml4K+txN5m/lw2Tsd9EXfwfaP4zx2IyGmxwpKWMI7+hK2fxq5mNkS7DKceMcpxfDcRNB/HVyRkiu7FeLK7q/Eb2PXSLM6JK8WtsCdvDjywTaJtkpcEh49UBfX4UT/t6Jynoujc902q9VISrH/2/FRPFaLg+OSrGp+M4++SQ9nzXKz3y0zicTwoqpZ8o3s5c+gL3bcO1oovii9+Lexa7y14pRdTsdnf7f2ftoKbxe91sFZdxbBorNiX7yh7/udHeuJ02HZ/K0Buwbt9GBx8GhwVOvNqBn11i7aUfEHXs1etXyKVsOmCTL0QGcnz71VaxE810H8iuX0SDWt6PW4Fl7OgqDNsgzVrLofn1b3Bj69sU0r7CWJEMhd43fhOL0WO3dNWrC2a63oLV6unwZ//i52cTsJyENxlIjTyeLMzCn7TPd/nn2yZtnRom5bC4IwypODwimTDp+Ww1NN92ea7tLXH+wtFiK1sVjVLZOGo4UBQbg1aPzPzNc1ci19UcK0BdPCem9kYe63o2ZajZB8aYXajAqjt0yitBCLI7QNWmX6PjbXT4KIcBB9Ii1Y26RxNBjZPWQxyb+JXfqa3/idFUgL2TE15wDYbdFXLnhzTbewiT09amY7QBi9sdTtKGyl7BpvWgeZaECkhnA2Z+yGbPMZ0dYTdvfMFDToaeshKTm02ZkMz3W9LHsjS4CHTFxbkOdDExW+IdNFQ8YWfVxMFrydFkbsDklTOjFtJulLRD5ehCwRGWOXbmubtjEG2Udy7HZKZk05j13yuI04rAxphwV9lUCeXRyGbGDaKKC5qgm7mJ59p0mSIbukyzRMgmYjSNk9sqQ0CbvJWQxyC3oejn7DIaXN5gLdWdIWG1vsTMGGNQ736MWkwg7LLYSCWRCxu3RoclI25J2l5sVJR3EwndGxFbFrbUkr0AJkJcqxq6Nyr3w4j11T89EseiUI0jprGqSTY9c6JnkjCX+ENCq7Ll6zIGtOdl/peXUmOym7bose7s9kl2YpYPX4cUlXJ8IJ00M48L2LbvoF0aFCyaKyQO5Uj9kdYgfXtSXtEQqfUStK4IKDZ0xjNiJ2aSqcxpA7q5DjJNiUS0pzDrvkca+ceXRfQgFaakMzxy6pMU5FRkYt6RvRu+02UZq4xrPLXo/qbxGU3TUKSX8TdvX28/MzvQAvtLCzoS9kpimW9GGW5cJ6Bc0juibJB4qpDJAK0TO5E34OUawZ2steK3ofj7fXXp1NlDmYsIv2WgfH7JIRsuCyleXZpTnHSojvWeyicIZsxAYnEzCkaytXwm6c+ISowQNjdzbTtZAmteLYrTF/8wLq3bW3Id1K2F3MyIVsGsT0sJFOY3889tLuZSI5ZKBkZ7kI1ckLhshNGbvOqzZwVtoyYZeKXYu9AB0tAtKXBRuIhF0XTbWtG7Nr1bl3YUnZ1YL66Zebn8Muedz71XjVYXMBpcCuaQskskvmoPhQdtT1SDOgNuWcsOtm7NY8vO7RpPUZu7ZLNKaoGWgz0cqP3sdim6i+SF+JZTdAdDEZK8kbnwh3mFZooGCBfM1B6ayGIjucyPmS9GXJaqLs1lwyXeziNJAogEcV5OwS26NoF/dsdtO8UpQiRoGz13o9gV3bSQwdUt5MZjVCIKkHBywPtdtmImPTmc8nMxZgl6Z+cYVZLS75rMUXeW52UgaFcYybYdEv8WuirAatgrLrDLUGaS8O01ktQhpFQxvE2CVKZ7qP2WXFT7JLFJtV/Lr5M9ilJtRrvV7fzuh0iqJAwKk2FW0Gs0dMLcdziOkziNhFlkfEgsrxVHPJsgExMXRWpk3ZNTh2iQDOEnZdj8CgCSYdO2LXttYWWYJl7JKpgL423Xa3UQ0+/eIRRU1GCmXXxsRybBgiu0RpTVlfpvRNGYzdGu6QvpzHLrHNrCL5PYNd8rhNz7Isp05HI4oDAUNNZJcmdgqWc6IqD43tigrqcb73tdBkEqyP0VinthixBHpUtHROM5BKdlrM7mG+J3gzSBuHjtGjtqsTBG+4oYMXjhLS2xu8XrI8TeRhz7autw9Y2iDGrtmhQ0lkl/x1RfvijelAjNhlocfnskvausLK+U39bhmRXSJUyTItJHYsiuSHTuLiWq2G56m/eW7FRy+nrN1mFN5LV7z2ihXSbTtZqy2jvqFZvFaL0DKNTUA/0Bc1xs0dwgNckXzMomuj3wMW9UYqNGwipWQawDQXlG2n7HrJOTGivchaMGRvqaL5ChN2n0uzSxp2RAoFUZ5dwmTygTlC4jRNmaekFik/1niMvQjUinIcx0TxAPLc427uRK4b1BgMGpgtPLzov3H1VBuQbxEMmrbsbTdYMTocZ747mlxKP4dUuV/hqH4Hv+4GjdhaMmg5mzXUY0uOzIOT9oVlOY3zPRte2lU+k9IpisLDOBfmcS671cDKsrYajLsyMLx0CWF5uYFoeWCBYZWutDROskuw6I3zafB+P7t/IMqwq1FLem8g1wGW8pXdEijJLmN4uqwbLPMuDVZyT2dgGrqWYUT/kH/TD+Afi/sa/SlXyMgXUvyQL2GVKVS2HVaukPSfrDJL/cJpOUK97feGg3l9e9oiO1DD8J+G8q1yV1xxxRVXXHHFFVdcccUV5fA/MQhHsJYlYRsAAAAASUVORK5CYII=;" vertex="1" parent="1">
          <mxGeometry x="305" y="78.07000000000001" width="179" height="73.86" as="geometry" />
        </mxCell>
        <mxCell id="y5FC7I3UabfgmGUV36cR-13" style="edgeStyle=orthogonalEdgeStyle;rounded=0;orthogonalLoop=1;jettySize=auto;html=1;" edge="1" parent="1" source="y5FC7I3UabfgmGUV36cR-5" target="y5FC7I3UabfgmGUV36cR-12">
          <mxGeometry relative="1" as="geometry" />
        </mxCell>
        <mxCell id="y5FC7I3UabfgmGUV36cR-5" value="Customer&lt;br&gt;" style="shape=umlActor;verticalLabelPosition=bottom;verticalAlign=top;html=1;outlineConnect=0;" vertex="1" parent="1">
          <mxGeometry x="125" y="60.000000000000014" width="60" height="110" as="geometry" />
        </mxCell>
        <mxCell id="y5FC7I3UabfgmGUV36cR-11" value="" style="shape=image;verticalLabelPosition=bottom;labelBackgroundColor=default;verticalAlign=top;aspect=fixed;imageAspect=0;image=data:image/png,iVBORw0KGgoAAAANSUhEUgAAATYAAAB5CAMAAACEG/2WAAAA9lBMVEXyyBEjHyAAABMAAA71zBAjHiIAABkAABf0zB8AAAighiXLrjCskCpYSx750B0gGRAXEx0ICRb70hMTEBg0KxuSfjPkxTEgHSXWtSJqWSnuySPjvy9JPhrRsSh+bB+ul0A1Lhe5miUOChuWfSdIPiQbGBMbFxpRQB+Fcx9xYCxSRB0gIBsGDR73xhAXEyIQEyBpWx6zmjH21C8mGgtJNRK/o0EyJhIpJBbEpCGCbzArJh9zXxnDpzc2JRhZRhMmFhAbDAk/LxWfijkSDincvkE/OCZAMyhdURoWAA2xnlQxHQBWTDVpUhSGeEFsYTU4LwvkyVljUy4I0WoJAAAM+ElEQVR4nO2bC1fiuhbHSZuUQmkNFltMaaVFK9IpLx3k5QOPDp57Pefc+f5f5u60gOIgOmPncdbkv1wq0KbJrzv7kYZcTkhISEhISEhISEhISEhISEhISEhISEhISEhISEhISEhISEjoRWH8s3vw71Ns9C2LGYLcV8mwSq3T0zNPswwsrO6twlVdDijtKHKh+9FhOUOY3VvkTBSKaq06pWGnsHNS0hxV2NyrUnsBHTRc12906+WA5qXz/eKwylRBbqvUUd7cYzg2VGdY6tYlhQZBRW+WXFVM1i1ielDRUkBYtdzeaCArHTMY1yZFN4mu8U/u4K8pVuvU3aVdwV/mTEcXBeVDh6LKZUPrQ3TNxQLdcwG2ivtkOuIcNpjbuLwKabvzQR6Mpo7683r3qwqzWlB3n3sxbPTd4kPtnJo0XxiMelUm5uqaNmPj1ZbBqr6nj4NOJy8NRsWhI+qIR72ELZeQU6t+Y78ilzv5oD5v+FVmCKNLtAVb8rHBHK00upDy1Lyv6F7J7feFzSXYyluwJYeozPVHg4ISduj4n27RUY0f1btfVq9Y2+ow1Zp6g0K5Qzvmte6zNzWd/PwKwi/8/44W34YtjRFaQ68j0zQlz9p+bE59op+xmKc+SZrip2mnmk029WZs/PpJXjI5DqlU3Hp17BYf1eNrA5n09e1ivcbj9aHCxk8/aBSr7+7P12BLjodc2DuiF9a2U3ZLUl7iP/ArH1zsl35wxoyrLSm9OEgya567uHHY2Zcl6ch/t3N+Q0h47g6w0+1I090tJxilkCAEPyiCP3b5qDt8bz+/SriqUzsivAMIfpv5mp/eN8BmIlTJBNsr1vZlpsYagXTzOjZTgjurtG1kk+Bs+CPtLcGGbJkrsIEdvUi5cWwkzAbbNmvjFeoXy71qMZD2tpE2SkcE0c97oNGsQKHfHd36gYkyx0bQ4U2pVLrpHpXh+n/oiT/LEttWa2NT/fS41197Ty2Wlb1tVwZsCCnF/u4u3u3fzrnpFUrv7elXiGNDbd3ajSH+O6MQuIUl3uEfhc34WCjbQeFg7TqATXoNG0H5RbRV+zOwN3rY/3K6fy8DTKwtbDnpC7cFphekveHY7O+IbRF52IBypz5by9Peii35P84ZPRkhu2AlT2NjyGJUBlotHoNFwHt4yRB8wqppDHp8kZ72mATGiwdt0KC6fgPWsOXYBMaQbyyxoe+ITWUWrz2xIyXRaEd7esRXYeONcGyygzk2Q3X9RtPzmkXfWawLVH1/6i8TGgYvpsv+OPB/jyVEMXNLyWnTZRKGHX6eg1W31Gisg1jHpnqArV3MGtuXIQFbjbnerBrwj4wim6B3YctZR4QQuYph9MatVxvTIAgoreiNhAAuHd192rlZtKedfrobnyymd2N8d3eRFHK7jleLgsBsX80ehouZcHD06RPy+70aakvzLdhYlxL7U4oqM2xW7UPlGbbYOTGpSedOHFsFnvlssrbtCcg6tgK0UeDW1u/VQ0qSbIqE7XaX2xh2ZRMF+iKxupHC0LxOUGGmB7ayz4doaDNKkW23CWoHp9Nk1LsHhTCUP07NNiLmfC1oJSEBsCWdNvxKGAXz1JyzwpZjJ0qruv6W2pMJH1dRxcmIif1t2BapGp7y5u5ZjNXidQj5FA2vr02gR+glHxlrmYjcp8NirQ6kyXJ6H61rhOQDzKkN2igKr2ezI9smdiH5ePdARkT+8z92GIbKBmujugW+T2XTM7C8mZZ6hKxCArRUcpNLcYfGWPK3kecZduCxLLDh/jyAxK3bj1W/Al4mrDV9TWvoyEYELsEvBw60ME0mbGrdUjHJFqYFZO+4OI6rrXZEzieaxdzmqU06lwyqc44N7fzXDOuXD62HDZP08MD3ezcnZYrobLq4hZlZWw4by6ipeV1vyOcHYEPpmL4ZG+LYkkhoHUhgWFIPQ1FWBhuea/B+bFheZCN6x6uu4b0NkS4lJfMpTB/4KHe9PEwuxqsSExA3LfC1mDVDRMZTY4ENhbSrMWYN19xMMklRKEtQJZQJqpzcLjllhm0VulV/oJjKeQl63FB4/CwvrA19o7U1qo5TdXsejBNJMB3VHoyenrl8usS8soWhSRAWsHPchjKCeydjpJC7O2LXuDfn+R5fasFuDWbWZTqLVVenUTjp85DAsdGWY0ACs+6cU2y851zo7i/fytra4sVyGHbmJi8kj50ltuA92MCFHepzXa+NAzuK6CE0wLw8tF9cdtmYnhNS3ofL8Q/sK06Kzej1X39TMuDWw699za2xF9iEloxk2Sxmkzail1aCjSwn9zOlxVXIV0DKcKuOFNRNa+I4M2wwNzUw/xjuachvDfe378cWkgjZZggBOfGSde5bnJYZoXtn9Sjb+gfce93lIQjKRhPGj90jUvm4F6IdKIXAtYFbh8PjPYWgq/8Zah+k9veoTVtunGILB5sebaTY6iPPG/01v5LCKAwOh5kmILva2b1Zn4Kda4e8duP5VSbWRpIsgyC7bUpzl99r9wLemrFHr3AJUdOEluHSFHWaRs5otE3d6Y1tOmE5o6kgBbqQc07KUUSOl6qAf7wbLrBJo0114bIm5ZG0bxWh0iHKfnK/soqkVgH6TsHEVthW1vYu3wY+PBqfVyqV+tlESxYJsXYdofaTBMvwPoBzAyOLWbccUQiP/TkNJ6pbo+CxYvXSRmEPBujoHZjydqdjUtq2KbQM2HCCjST5yUZs3FIX1xkOEIry3GlnZW3GDferJO8ZHBufUPKzSUq+DRvMutF0qGmay5bTSIM5GnTXsRGJD0FtQJJw6GJ3RqOiwR6oXR9ipw65Cs/QmG7aETED02zTgPICQ6ovsUmll7Etq4ScOoEpmx+B4eKssHkK5/LhRAVsRxliS/I2XmuvTsSuCYFPf4Jt8gFcKff5hn8X2uc9ozcO6xqGqUrAufk7qDzh5ZcDMy66GjUf5TWq0HAySUub+vEMm1EMCDL5LM0QGyf0nbA9G8sFeIGL1eMQzC7BCC7cJBnhxVCz3zTDS0i4pxSZ8CKEOoWPzzkJiH11y56It7zA9gZr2y2V+Q3LFluUYDMyxoYesS1jAEw2FJmrzBO7A/CqraTCZx5FweR23zQ9COrWgLTnt92QT1UYKmvm09Cxrt23YlP7Tch5g/1MJ2mePyVJsWXr276wNtaUeJxZuLrYKIY2OFWWnjCGxPWmFspDvkzy0A4P/2yFbe7U45xakiLU8fpp3sZ/JS28gg3xmjTtze0x5ENygy1WdzOapGQ5SXk6//0maS7n74S2fVXq8+UzrE7rkO6PF49G3HpIKq0Le4fnJ7ikROd/1wlt9tMPIT+xL0oMJ8ggb06L6O3Y7AU2rLp84QiNNTWXqW/7Udhiy4NZap8WHfBOVu8YsilztFwTe4BqaAyBNqlMbwvk6NOYID+9CGu2IVcbHDgsp6rMmdaayVGvWFt4PIVArvl7s4A/9Gsmi1T/RmyGBnUCCc2a1xjt71BCzJaLU8+XBDtC8r2k2eTpQ2TPFhUFdo/bUBDct5rFUrHZul+U/a9EUkKuj9D4WpJgWMScV5frbVlNUrRMQLLFtmnDw/BMgkuEeUlpk8hWWtryEKwV+HUKi5XFUR5FUXuV46k+WAwEw7zUzisdpDTeYG1JlWKnD7k78shNP+HWRjLDVs4amxyYi4ce6x+43YJC7WREitR1V0fEVl0xab6VbmXCPblDg0JvNTp12JIo7wmx7UCu+OkyZaHTealKaCntdoeLfpDle733uAKidJTx+7HxJUIULSJpVtiwr3/Wj/0vsWHD+ji5kCVJLgxG06fbvYy9lq63Fg9TY0fX9c/HT/eZWD39vsAX0M73D27Ttnr8jI94wzZ27Hif9YX2R0XNWvWENVv65/3hJtZfI+zKUHTb8hRniQ08d199YUtUDE5d024dtv4VJXibn7R4wTd6safnA5q+davd8vNWb7JkG9jGp60q66/2ia1tFFOft/xtMhrnYXjq9XMpNpINtlySYG0aD04+4lnspjNeeLE4E/9CX0Bkw0aD745M0t3I5tjUF7At+5zsAXkNW+b6ZYilwuljcIg+bZ7f1J2XrM1g6RZ7wPrKjqPfSaxo2nZY4M98N2Iz/K7Ht9jjXQjvG9eif0+x0ux+1uC7PTZhi9WWQs9bk57mX4Z0tn3z7m8lzByLe7lcI88XtMvJAz+y3APS9+Q/qNkJd+w2ve/97L7+glKLEthYFEC+6hQet8703WZtTCgNw1lPfHttg9yzILSD+tDAK2uL48UW+we9yzfVCH0p1b8cI73Eck8naSL+ZSLxhfCXpFZ9PykY00nKd2L87C79K4QXO0Ose15x2acicH6Vdm9kGxF5r//6oUJPpBZnO6dFQe1rpVoOE4HzWyS+sSwkJCQkJCQkJCQkJCQkJCQkJCQkJCQkJCQkJCQkJCQkJCT02+j/sqCKFmbiQfsAAAAASUVORK5CYII=;" vertex="1" parent="1">
          <mxGeometry x="70" y="421.14" width="170" height="66.35" as="geometry" />
        </mxCell>
        <mxCell id="y5FC7I3UabfgmGUV36cR-14" style="edgeStyle=orthogonalEdgeStyle;rounded=0;orthogonalLoop=1;jettySize=auto;html=1;entryX=0.5;entryY=0;entryDx=0;entryDy=0;" edge="1" parent="1" source="y5FC7I3UabfgmGUV36cR-12" target="y5FC7I3UabfgmGUV36cR-11">
          <mxGeometry relative="1" as="geometry" />
        </mxCell>
        <mxCell id="y5FC7I3UabfgmGUV36cR-12" value="" style="image;aspect=fixed;html=1;points=[];align=center;fontSize=12;image=img/lib/azure2/analytics/Azure_Synapse_Analytics.svg;" vertex="1" parent="1">
          <mxGeometry x="125" y="271.14" width="60" height="69" as="geometry" />
        </mxCell>
        <mxCell id="y5FC7I3UabfgmGUV36cR-19" style="edgeStyle=orthogonalEdgeStyle;rounded=0;orthogonalLoop=1;jettySize=auto;html=1;" edge="1" parent="1" source="y5FC7I3UabfgmGUV36cR-15">
          <mxGeometry relative="1" as="geometry">
            <mxPoint x="760" y="250" as="targetPoint" />
          </mxGeometry>
        </mxCell>
        <mxCell id="y5FC7I3UabfgmGUV36cR-15" value="EDW" style="shape=cylinder3;whiteSpace=wrap;html=1;boundedLbl=1;backgroundOutline=1;size=15;fillColor=#f5f5f5;fontColor=#333333;strokeColor=#666666;" vertex="1" parent="1">
          <mxGeometry x="632.5" y="210" width="60" height="80" as="geometry" />
        </mxCell>
        <mxCell id="y5FC7I3UabfgmGUV36cR-16" value="ODS" style="verticalLabelPosition=bottom;html=1;verticalAlign=top;align=center;strokeColor=none;fillColor=#00BEF2;shape=mxgraph.azure.azure_cache;" vertex="1" parent="1">
          <mxGeometry x="615" y="70.00000000000001" width="95" height="90" as="geometry" />
        </mxCell>
        <mxCell id="y5FC7I3UabfgmGUV36cR-17" value="&lt;b&gt;AS Is State&lt;/b&gt;" style="text;html=1;align=center;verticalAlign=middle;resizable=0;points=[];autosize=1;strokeColor=none;fillColor=none;" vertex="1" parent="1">
          <mxGeometry x="35" y="8" width="90" height="30" as="geometry" />
        </mxCell>
        <mxCell id="y5FC7I3UabfgmGUV36cR-18" value="&lt;b&gt;To Be State&lt;/b&gt;" style="text;html=1;align=center;verticalAlign=middle;resizable=0;points=[];autosize=1;strokeColor=none;fillColor=none;" vertex="1" parent="1">
          <mxGeometry x="35" y="560" width="90" height="30" as="geometry" />
        </mxCell>
        <mxCell id="y5FC7I3UabfgmGUV36cR-20" value="Not in use" style="text;html=1;align=center;verticalAlign=middle;resizable=0;points=[];autosize=1;strokeColor=none;fillColor=none;" vertex="1" parent="1">
          <mxGeometry x="760" y="238" width="80" height="30" as="geometry" />
        </mxCell>
        <mxCell id="y5FC7I3UabfgmGUV36cR-26" style="edgeStyle=orthogonalEdgeStyle;rounded=0;orthogonalLoop=1;jettySize=auto;html=1;exitX=0;exitY=0.5;exitDx=0;exitDy=0;exitPerimeter=0;" edge="1" parent="1" source="y5FC7I3UabfgmGUV36cR-21">
          <mxGeometry relative="1" as="geometry">
            <mxPoint x="490" y="680.1" as="targetPoint" />
          </mxGeometry>
        </mxCell>
        <mxCell id="y5FC7I3UabfgmGUV36cR-30" style="edgeStyle=orthogonalEdgeStyle;rounded=0;orthogonalLoop=1;jettySize=auto;html=1;exitX=0.5;exitY=1;exitDx=0;exitDy=0;exitPerimeter=0;entryX=1;entryY=0.5;entryDx=0;entryDy=0;" edge="1" parent="1" source="y5FC7I3UabfgmGUV36cR-21" target="y5FC7I3UabfgmGUV36cR-24">
          <mxGeometry relative="1" as="geometry" />
        </mxCell>
        <mxCell id="y5FC7I3UabfgmGUV36cR-21" value="EDW" style="shape=cylinder3;whiteSpace=wrap;html=1;boundedLbl=1;backgroundOutline=1;size=15;fillColor=#f5f5f5;fontColor=#333333;strokeColor=#666666;" vertex="1" parent="1">
          <mxGeometry x="622.5" y="640.03" width="60" height="80" as="geometry" />
        </mxCell>
        <mxCell id="y5FC7I3UabfgmGUV36cR-27" style="edgeStyle=orthogonalEdgeStyle;rounded=0;orthogonalLoop=1;jettySize=auto;html=1;exitX=0;exitY=0.5;exitDx=0;exitDy=0;" edge="1" parent="1" source="y5FC7I3UabfgmGUV36cR-22" target="y5FC7I3UabfgmGUV36cR-23">
          <mxGeometry relative="1" as="geometry" />
        </mxCell>
        <mxCell id="y5FC7I3UabfgmGUV36cR-22" value="" style="shape=image;verticalLabelPosition=bottom;labelBackgroundColor=default;verticalAlign=top;aspect=fixed;imageAspect=0;image=data:image/png,iVBORw0KGgoAAAANSUhEUgAAAV0AAACQCAMAAACcV0hbAAAAsVBMVEX////jKy1ygIvhAADoZGX53NzhCg7iIybiFxrjIybjKCriGh3lSkviERTiHyJdbnv0urr2yMnyrq5reobGy8+/xMnwoaLzs7Py8/TsgoLtjY6Vn6fX2t2Hk5zlQ0Th4+X87e3q7O71wsL30dH+9/fqdHWjq7L75eXulJXkOjzkMDLmUFLoXV7shYX3z8/reHnwpKV6iJLoYmPnV1izur/pbW5YaniosLbCyMxNYnGOmaGHNOB4AAAZxElEQVR4nO1diX/iLBOOxZDLxKs1aq2mGutd7WG72///D/uAXAOBGG12v3d3fX7voZUQeDIMwzBMNO2KK6644oorrrjiiiuuuOLXYnL7/nT/8PLj/92Ovw+j94cuxc1N9+7/3Za/DKMnxmuEK7uV4u4mo/bKbrV456i9slsl7kRur+xWhslNjtsru1Xhs5nn9spuNei/SAT3ym41GMm5vbJbBX5ItcKV3UrwrpLcK7vfRwG5VbIb6JVV9QfhroDcKtltIL+yuv4Y3Cp1brXs7swa2ldV2Z+CSSG532A3DIIgzL5OUa1Wc8ZBBU3+g1CkFi5kN5wOtx5CGCOExgM/oH8LKLm1muU+y68Jpsvjil6A8Op16C/Ou+Ni9vw8K33Nwt+9rumtkDk+LqfBefc6B1+Vs9vaItez7FoE2zPRdqZpKyP+jpb5Sxa9FXKd5Brb8Ezs7Wb5crPBLsYgmyH15QZhlwCj1a59snn6zsKmZyT3shwXrZbig+lxkFQ64wpIusTw4wS5Z7PbM12rJsBCx72TfnNfQ/6S2RY5tniN7eFVS6y8hbwY6QQ5bSDHyC5ynV5h81or7OXv5aA3/lkekJPBRPl6LBMUkAkMRb+QXLY7cdbOT8sxxaZH/ELG8QBestgiQ3pNzXZXgvy20tpjEvUxFi62HdxRNu955eaoTQRgG8CSG1itsxMr6sFu2ivF7Qr0Qrd7/2NShlGAOlY0HsLgGtNTccvajfh+Zex67AkNpRfjN2FwJNijguZZnL0YTxMxUMBXFGLuV4Udr/Qu3HRfbs/ilWJhe6e5JZ2HTd26xYXNDbxDxq7xSvrYkA+UmufJJrhg7ciLpyzBMXWADbNe+aoGsKOmSuu+qLi9GSVN0nU9UFwtQC8juKQP0+yScHXyeXhQ0jN2yWhceDkFn/7q5unVRR2Sh3sE5RuwOOJU1AIKtlIvqES3+RlV0ttiYlaRfzfL04vYRdGwy2CCsR6uT3aY0DuWsVszF0UP0/ZE5aCXaZ4LpDdQU/jGEa+iRiG6XSa4cDI2HJSfwHmE+WlfBqMBrhkrhQ/CmcvYrZmF97MafPOCcgMLzog9qBtcoJTbUOs6QwUhE4W//FGTTMa2u5YYoBkapZjiZGou0YO2nWcBpQ+2pVC0Eri8ZbbKjxJbeq8AdAlcYzvZ39fgMnutIuReym63r8lncnEC59ATZifbIcY9MfIFifbAk24h8RKMnNV45SLhKts8xa6EJn6e3wkP0jAxssdjsmBzec1vgFmUU69OOnd1YFeRSuT68n00KrlH+UxuvqnI5Q2YmoHHvRnpXTDrrfgxgLKFMG96GnjV0yPBDmfLNfdjOvpk7FrkaazIGlqgqeZlCoUoXf4S9NaJtWXQ3rlcpRgszDiRSZ8W/GPeEk4gXaZ1qSG2VQ1Ar6Goa851zW2AJ/o85izvdIQNHeUlBFPOfEKhil2yDJyyH8P2HPHKCQgvN//b6MhbFAe4ujTAJKqNwXXJ04LttmsqcrUHGbn3lCq1dvO20qoE21tYjC65ERZPyyF/ySFX5xzIiHlQsOu+ZhRqQZ0bctl8w01DhplzG4RjIBwYPGZON0TGAddVpV6QKwaqdA/cQkTsjtR0HkLRhQZtBJ9rUSQ4S042ZY6zQUZlMneI7IoPpcdZUekwgcta2w4k9wLC7UEf9BLcMDJ36kDOnYGkqggyY5e6bAQVKkJq3kGZwZINCKjA4tbDiQvJPVugy/FdBXZRzkrkNGUihZwEujJytRDYdxj+sALNxERsZqAu21KSqz3J2CV/3xabVpxeitGG5M3zv5NKgfQwJQovUZmMgJXYacOzKxtHnGjFv8NhgnMDK4KftYfzQMP5kGpZqIkVQsEgWUp03/mHI4WkfVAxYKkHBQ4Ikwo3WKmrReA17YoR6XuOXUM2xUJ1nhQA8ic6DDJkfkmHe2hDuIA5TPODUA6Z6D7yD18KSadA8z2FHO4zNi26mgcWqpmf0WIAMrH4B9USdAeedOSXhU8WK1f02XUWP3PDtUMN9BSuL3KQLdReTmpdaa+gvCDF9osOpkpX6LGyjUF2EWb1QnYNufkCbxRxCeTNlqi1GEBVuXyF3EwJelq0DXKbZ5cqhs7ptWbO+w86pHQYgZFHDVHQF7sxayvwnDXGbYvsugoNathCEaB2rf2z6l6drJTgzRXXeRG8o+zmCSQRItR7czztLjA2QlVAODzl2mWeVUymjQM0yV0lskJmR2RXsh3DAHRQdBHskqW8FZz5hMFZk6yzbVPhoY8gMRmo2rVKuJLEfh2AX1C569LLmm+2OO1YCtFUA9jNPeO0NY5w0biUdwzAFca8bKLPG/Uc7qX2WHha7SY6MAMYemLDMrQyQXQOZYYIj2hQAHaVowSWYVPsiR2JPEzRjB7kqijWC9J1MGF3UbROS+AK6z9gkIk/ZQCalijuE0Z1HtZcYE659wtuFG2+lREYDvkBmPPBuYV6Qe4552dcJUQBLcXuM8fupsSmBAdmxnF7EyodVAG7ORNxJvgMzWK9UCm7UDMoIm24qY9ohv80u06O3UBg1z21EfYddgUK+QlLAWDqkcXa23+Z3XzVDTFoQrkjEUOud0ssJvIWCyDOUe0+c+qjrdXPZTci6iJ2T+zp52GKfihx46XIax7hS8JuX9PKyC4SVDroj2IBpXF2EbE5gFFas40SMEWboTy73DZYmXuJnpSFzCIr3GSUbarR1USJyTy3HoOGhsh8AmHpC1S1vWqUwPhwMbvAP2ePy9xLjK8aSwaabRey+ylh947ToSrkLU3RASYBsPGpl8QXjdJyuIhd4I47OdfLsJQ6Bwo855o8nP9BPgoE4JxdAJS+St8DNwOdkku5JvK4iN1OiSVIAXQFI9L9lASyrYlmXz4MONhGri7onnalvYYlmButhFtNgovYnYEn6ZW+VYqVYiFdWNejzL/7g1uxyiFxx87gXCgjS8/5tIHBe4ZquIhd+CRVjjU1oPe8xk1K8l2YGLL99hdN8BZLHpnMaQw3yWwrEH9ewKikqINQv4vxm2pcxi7YEDhpqIrg9ILZ42SvyMMrMcmY1dAu1rxYtl7gYhMMT7CHZzD0I1azC8kOzWlcxi6YQk9MRnmshaZvFNFPIuRHAMkP+yKzQR7QwC9CbATHerjjIxfiyQDqd0flcVoKg+8ydrnVGlZ5f7ayCjnPObVxuVm/wFMmjdGj2xOyiLaUOENuz+55f62Dd89xhMwAcz85yVafD8eYI39mr67Li9qF7HLBzFhqN+grT3JWkfPsRrVx9lmBl1ceo/dIKLFU9NryaADJCtpzkbciLRaiu6zM/OIOh1hOTuEEQxq5xNN7Ibu8mWmKqwXC7ZFG9+bDI+CuRKIHOF2h9kTKAhoi3RDU5FsHhqM0ng4SUyMfmWits9ZwwksDWA+g8sDfoqgNLhS1C9kVhpaNNz5gRT+M4wg0kV7Oa56sj3l5rqsIkUeedx/ob28yu8wdF/iM30rs5ZhcBYJlbTvIPi47vn9YHm1kpj/CkXwpu6HgPjFMtNqzew23Ls4sHn6kP0Mes3147lFJJ3kGqejG9B6QyJanOpUVd8A+tQwxEG/Y5peFtuWYBA6/uYezyy5lV2vlvFO2R+/lCGcvOHo53ZWZjSEX9S6PjtGUiQO6LzQ+OhwA+aGh/fNAUU2MwCmm16iLaqVTxiFHO5A+1ovZlca5ywBsWC5q1gVrKO5RWSqvoPIoYHRwIuy8IeyajulitDmc4FZTa+sY9jo3Jw9Kul7TkNXL2dUaJXehU9ciZ/fz0XOc718WlcigmNdoGG8/KqFPO4dOq2zWim2hMNpuIxAuUMS4C3BSdf0NdrXTh7co3NTC5k4X8PFHvIXEnb8DkMf2M3qbn48lKYXo4MIBaOTsw0EJ5YCzefk77Gqb02FG4Ij4ET4McSuC26ywVOcdJE7elN/uw4/zCSYLs8KTVUjkpFN0kJW1HUZAf4tdbXDqyJrjpFp3ykWP5aI0OceZ3C2onUjO0CUMP32OFJcqEB5WyMwfI0/pFS2YxVh1MJrC4A9Hf49dre0Via8FTrKGnMrKu2t4p6/KDXU6gcAF2S8WnfkaYZoyQTSuajIHpW+7Cvn10IZ3UX+TXbKOxYpDhMTahmdV6lAvyNwJ3ELDUkVdyY6m8PRemLllobfb7VZv7vF+BuGEe4RWAznifp7tuXggTqc+MhPkdEyCdlYGS+KXD2ucMx0NBxvLQH4feiuZSeu4sITCNVScoOEb7KaY7XnV6sosmMVhS48OepZlWBax8115mhC9k0FlyCxAGakDVl82EKbrCMMw6L0waiwFz0OHg3SLR+eKqAK8JXG81bJL+svN1sozXvq0t5vXt6/H/dKfnYjT+i701nJwrL+9HgfL0vbmRVAavZWxKywb8ruefzMeig2HSvKRwVXlJRuzfzB+vexyntJzttj/AhTObBWxC/e2VDH5fymK6K0qUyGMdDozldufjr4s43m17AK/kjqEWtW8yWg06ReVeJwU/17FPb4B5dRWFbsDLsI0Qf8rTso14hfco6/s891Lk+Ema8n7JywcF+gCx9PjF5/s6yuq/v4pwmfy/6QZ711WxccFmaxKQWWYlWB3usxS9ikHPYzfzTxl/Y+Y1dsmJzc/PpJPk27z/vax338cPTVvkjL3D6Bos/l0O3l8HL3ffDylV31wT6v/EbH28MXw0I0/xM9wRKoYkXtMbr8+HrRfAsWyogS7Q5zl7FOGp4DdKBC73m8m7HZfuMY00wIvKe39l278GbB7n1FKdwrjApMmJ7v9JieTE/5RTprZSJnw7agOfal2KMEuiB5Vn1cDehfklwDsssQbCVJ277uwkiRNWsbuE8/bVyl2R03Ot/oCCX28ucSxXQa3+VellGEXntFT7kDLbYaM3eZ7E9wpZbfJadgEKbujD3maynPYFX78hfjM8VuCXXiUReXqhEfvgb0L2NU+ASMJu/2mlL2U3RuFmjyHXaHsr0Rf5LeMzQDkUpW0AAZQgx1AwG6f2C2pOsxk911WW8LuSEXMOew+/jbZpfjxAgkuw27jZMINGHgD43U5drVsRgF6V2aDJuw+3ShadJbeval+IitaLz2yNwOWZ5c7bCFLMMFtlMDDhDy7k2Yy/2c2Q7crkayE3Zun/G8MZ7E7ad6cub11EgdlRo+oPaP3r5sm4bhZgl0+p2c+2G3K71DD23DsEjP3NvmalrhvNr/uRrwEJ+zKtbKW16WF7GqPD83m/V2V2tfPk5DHI1keljFQ3rh9G/zKDYxgzpHLOSAFdomBNYm/gjJ3X3Ql9gQIStlN//YeI/7DpPljAjAqZpeNVroafKpKhn2zDL0lIWQwsNBbknQ/aB2FiDTOqhDZ1V668Vf+Bo+3n2S5m+qBPLs3LwzdeF0wiVa2Kbon2I3u8XTTlM+iZ8M388EFl0M8REizWI632zFGYo553qjIsduPggRFdtlPn+lSOGVXVFtPCbvNUR/g8ZTsJnh8alayFKYO1+KoxnMgO19sG4Zkd5uPGcyxq00+PjU5u9R2itdzCbsv4qyWsXvGrMbhthLpZe5st+hQ0FkoG88oxDrl2dXu6MwmZ1d7j0sl7H52hQLfZ1dYe1+IaLOgujfD7EslHhbOQcjY1e5J3xXsJqQl7AqusErYFbx1lyHeijHw6beLlEO9BL2m6IaQsau93AB7lysusss7YLQL2eXvUSW7wnsAvoP5SeXg5kKGpOz2m/cJu3cfXFfvBM0Qa+kMl7D7xKuCp+o0A9MOdkUBBr3iGEPZG36k7JLevyRdTD22rHRicGUeyHeO3knixjzPz/DAfatsVku6Pa8m9EVXvuiFagVbsp0mZ5e+kTv+9AgWi6Mbiff8/eMhIbL/9JH4iM9cCWfm8G2zEqcD3AKveaows3NxMOUxhrYpP+OoYJfMbOBj8/7HaHT7efPxINv5Gd2QNdbd7e37w0dG0nmzWv+BLgVHox9P3Y97rQr4/CRkOhUtLTorJMYY2g6uKbwa/Z8Juz/5uQS4xh7f2a7ky1NG2BcnYCO6xmp2vwCDk5/8vtpPziEx+inaDJPP6B7vFW1MCOwS6XJ6FemH3obFGHqW5bEQw7EYYgjQz32oBv1zvlYPkV0WIJwLmL0Uequ32x+P+13vl4cz/ieRZ5fqX7zq/WOBMr8GUnaZAK+W/1QI6C+Bgl1GsIs2w5b+L47oqqBml4K+txN5m/lw2Tsd9EXfwfaP4zx2IyGmxwpKWMI7+hK2fxq5mNkS7DKceMcpxfDcRNB/HVyRkiu7FeLK7q/Eb2PXSLM6JK8WtsCdvDjywTaJtkpcEh49UBfX4UT/t6Jynoujc902q9VISrH/2/FRPFaLg+OSrGp+M4++SQ9nzXKz3y0zicTwoqpZ8o3s5c+gL3bcO1oovii9+Lexa7y14pRdTsdnf7f2ftoKbxe91sFZdxbBorNiX7yh7/udHeuJ02HZ/K0Buwbt9GBx8GhwVOvNqBn11i7aUfEHXs1etXyKVsOmCTL0QGcnz71VaxE810H8iuX0SDWt6PW4Fl7OgqDNsgzVrLofn1b3Bj69sU0r7CWJEMhd43fhOL0WO3dNWrC2a63oLV6unwZ//i52cTsJyENxlIjTyeLMzCn7TPd/nn2yZtnRom5bC4IwypODwimTDp+Ww1NN92ea7tLXH+wtFiK1sVjVLZOGo4UBQbg1aPzPzNc1ci19UcK0BdPCem9kYe63o2ZajZB8aYXajAqjt0yitBCLI7QNWmX6PjbXT4KIcBB9Ii1Y26RxNBjZPWQxyb+JXfqa3/idFUgL2TE15wDYbdFXLnhzTbewiT09amY7QBi9sdTtKGyl7BpvWgeZaECkhnA2Z+yGbPMZ0dYTdvfMFDToaeshKTm02ZkMz3W9LHsjS4CHTFxbkOdDExW+IdNFQ8YWfVxMFrydFkbsDklTOjFtJulLRD5ehCwRGWOXbmubtjEG2Udy7HZKZk05j13yuI04rAxphwV9lUCeXRyGbGDaKKC5qgm7mJ59p0mSIbukyzRMgmYjSNk9sqQ0CbvJWQxyC3oejn7DIaXN5gLdWdIWG1vsTMGGNQ736MWkwg7LLYSCWRCxu3RoclI25J2l5sVJR3EwndGxFbFrbUkr0AJkJcqxq6Nyr3w4j11T89EseiUI0jprGqSTY9c6JnkjCX+ENCq7Ll6zIGtOdl/peXUmOym7bose7s9kl2YpYPX4cUlXJ8IJ00M48L2LbvoF0aFCyaKyQO5Uj9kdYgfXtSXtEQqfUStK4IKDZ0xjNiJ2aSqcxpA7q5DjJNiUS0pzDrvkca+ceXRfQgFaakMzxy6pMU5FRkYt6RvRu+02UZq4xrPLXo/qbxGU3TUKSX8TdvX28/MzvQAvtLCzoS9kpimW9GGW5cJ6Bc0juibJB4qpDJAK0TO5E34OUawZ2steK3ofj7fXXp1NlDmYsIv2WgfH7JIRsuCyleXZpTnHSojvWeyicIZsxAYnEzCkaytXwm6c+ISowQNjdzbTtZAmteLYrTF/8wLq3bW3Id1K2F3MyIVsGsT0sJFOY3889tLuZSI5ZKBkZ7kI1ckLhshNGbvOqzZwVtoyYZeKXYu9AB0tAtKXBRuIhF0XTbWtG7Nr1bl3YUnZ1YL66Zebn8Muedz71XjVYXMBpcCuaQskskvmoPhQdtT1SDOgNuWcsOtm7NY8vO7RpPUZu7ZLNKaoGWgz0cqP3sdim6i+SF+JZTdAdDEZK8kbnwh3mFZooGCBfM1B6ayGIjucyPmS9GXJaqLs1lwyXeziNJAogEcV5OwS26NoF/dsdtO8UpQiRoGz13o9gV3bSQwdUt5MZjVCIKkHBywPtdtmImPTmc8nMxZgl6Z+cYVZLS75rMUXeW52UgaFcYybYdEv8WuirAatgrLrDLUGaS8O01ktQhpFQxvE2CVKZ7qP2WXFT7JLFJtV/Lr5M9ilJtRrvV7fzuh0iqJAwKk2FW0Gs0dMLcdziOkziNhFlkfEgsrxVHPJsgExMXRWpk3ZNTh2iQDOEnZdj8CgCSYdO2LXttYWWYJl7JKpgL423Xa3UQ0+/eIRRU1GCmXXxsRybBgiu0RpTVlfpvRNGYzdGu6QvpzHLrHNrCL5PYNd8rhNz7Isp05HI4oDAUNNZJcmdgqWc6IqD43tigrqcb73tdBkEqyP0VinthixBHpUtHROM5BKdlrM7mG+J3gzSBuHjtGjtqsTBG+4oYMXjhLS2xu8XrI8TeRhz7autw9Y2iDGrtmhQ0lkl/x1RfvijelAjNhlocfnskvausLK+U39bhmRXSJUyTItJHYsiuSHTuLiWq2G56m/eW7FRy+nrN1mFN5LV7z2ihXSbTtZqy2jvqFZvFaL0DKNTUA/0Bc1xs0dwgNckXzMomuj3wMW9UYqNGwipWQawDQXlG2n7HrJOTGivchaMGRvqaL5ChN2n0uzSxp2RAoFUZ5dwmTygTlC4jRNmaekFik/1niMvQjUinIcx0TxAPLc427uRK4b1BgMGpgtPLzov3H1VBuQbxEMmrbsbTdYMTocZ747mlxKP4dUuV/hqH4Hv+4GjdhaMmg5mzXUY0uOzIOT9oVlOY3zPRte2lU+k9IpisLDOBfmcS671cDKsrYajLsyMLx0CWF5uYFoeWCBYZWutDROskuw6I3zafB+P7t/IMqwq1FLem8g1wGW8pXdEijJLmN4uqwbLPMuDVZyT2dgGrqWYUT/kH/TD+Afi/sa/SlXyMgXUvyQL2GVKVS2HVaukPSfrDJL/cJpOUK97feGg3l9e9oiO1DD8J+G8q1yV1xxxRVXXHHFFVdcccUV5fA/MQhHsJYlYRsAAAAASUVORK5CYII=;" vertex="1" parent="1">
          <mxGeometry x="304.35" y="650.03" width="169.65" height="70" as="geometry" />
        </mxCell>
        <mxCell id="y5FC7I3UabfgmGUV36cR-29" style="edgeStyle=orthogonalEdgeStyle;rounded=0;orthogonalLoop=1;jettySize=auto;html=1;exitX=0;exitY=0.3333333333333333;exitDx=0;exitDy=0;exitPerimeter=0;entryX=0.5;entryY=0;entryDx=0;entryDy=0;entryPerimeter=0;" edge="1" parent="1" source="y5FC7I3UabfgmGUV36cR-23" target="y5FC7I3UabfgmGUV36cR-21">
          <mxGeometry relative="1" as="geometry" />
        </mxCell>
        <mxCell id="y5FC7I3UabfgmGUV36cR-23" value="Customer&lt;br&gt;" style="shape=umlActor;verticalLabelPosition=bottom;verticalAlign=top;html=1;outlineConnect=0;" vertex="1" parent="1">
          <mxGeometry x="125" y="630.03" width="60" height="110" as="geometry" />
        </mxCell>
        <mxCell id="y5FC7I3UabfgmGUV36cR-31" style="edgeStyle=orthogonalEdgeStyle;rounded=0;orthogonalLoop=1;jettySize=auto;html=1;exitX=0.5;exitY=1;exitDx=0;exitDy=0;" edge="1" parent="1" source="y5FC7I3UabfgmGUV36cR-24">
          <mxGeometry relative="1" as="geometry">
            <mxPoint x="389" y="1040" as="targetPoint" />
          </mxGeometry>
        </mxCell>
        <mxCell id="y5FC7I3UabfgmGUV36cR-24" value="" style="shape=image;verticalLabelPosition=bottom;labelBackgroundColor=default;verticalAlign=top;aspect=fixed;imageAspect=0;image=data:image/png,iVBORw0KGgoAAAANSUhEUgAAATYAAAB5CAMAAACEG/2WAAAA9lBMVEXyyBEjHyAAABMAAA71zBAjHiIAABkAABf0zB8AAAighiXLrjCskCpYSx750B0gGRAXEx0ICRb70hMTEBg0KxuSfjPkxTEgHSXWtSJqWSnuySPjvy9JPhrRsSh+bB+ul0A1Lhe5miUOChuWfSdIPiQbGBMbFxpRQB+Fcx9xYCxSRB0gIBsGDR73xhAXEyIQEyBpWx6zmjH21C8mGgtJNRK/o0EyJhIpJBbEpCGCbzArJh9zXxnDpzc2JRhZRhMmFhAbDAk/LxWfijkSDincvkE/OCZAMyhdURoWAA2xnlQxHQBWTDVpUhSGeEFsYTU4LwvkyVljUy4I0WoJAAAM+ElEQVR4nO2bC1fiuhbHSZuUQmkNFltMaaVFK9IpLx3k5QOPDp57Pefc+f5f5u60gOIgOmPncdbkv1wq0KbJrzv7kYZcTkhISEhISEhISEhISEhISEhISEhISEhISEhISEhISEhISEjoRWH8s3vw71Ns9C2LGYLcV8mwSq3T0zNPswwsrO6twlVdDijtKHKh+9FhOUOY3VvkTBSKaq06pWGnsHNS0hxV2NyrUnsBHTRc12906+WA5qXz/eKwylRBbqvUUd7cYzg2VGdY6tYlhQZBRW+WXFVM1i1ielDRUkBYtdzeaCArHTMY1yZFN4mu8U/u4K8pVuvU3aVdwV/mTEcXBeVDh6LKZUPrQ3TNxQLdcwG2ivtkOuIcNpjbuLwKabvzQR6Mpo7683r3qwqzWlB3n3sxbPTd4kPtnJo0XxiMelUm5uqaNmPj1ZbBqr6nj4NOJy8NRsWhI+qIR72ELZeQU6t+Y78ilzv5oD5v+FVmCKNLtAVb8rHBHK00upDy1Lyv6F7J7feFzSXYyluwJYeozPVHg4ISduj4n27RUY0f1btfVq9Y2+ow1Zp6g0K5Qzvmte6zNzWd/PwKwi/8/44W34YtjRFaQ68j0zQlz9p+bE59op+xmKc+SZrip2mnmk029WZs/PpJXjI5DqlU3Hp17BYf1eNrA5n09e1ivcbj9aHCxk8/aBSr7+7P12BLjodc2DuiF9a2U3ZLUl7iP/ArH1zsl35wxoyrLSm9OEgya567uHHY2Zcl6ch/t3N+Q0h47g6w0+1I090tJxilkCAEPyiCP3b5qDt8bz+/SriqUzsivAMIfpv5mp/eN8BmIlTJBNsr1vZlpsYagXTzOjZTgjurtG1kk+Bs+CPtLcGGbJkrsIEdvUi5cWwkzAbbNmvjFeoXy71qMZD2tpE2SkcE0c97oNGsQKHfHd36gYkyx0bQ4U2pVLrpHpXh+n/oiT/LEttWa2NT/fS41197Ty2Wlb1tVwZsCCnF/u4u3u3fzrnpFUrv7elXiGNDbd3ajSH+O6MQuIUl3uEfhc34WCjbQeFg7TqATXoNG0H5RbRV+zOwN3rY/3K6fy8DTKwtbDnpC7cFphekveHY7O+IbRF52IBypz5by9Peii35P84ZPRkhu2AlT2NjyGJUBlotHoNFwHt4yRB8wqppDHp8kZ72mATGiwdt0KC6fgPWsOXYBMaQbyyxoe+ITWUWrz2xIyXRaEd7esRXYeONcGyygzk2Q3X9RtPzmkXfWawLVH1/6i8TGgYvpsv+OPB/jyVEMXNLyWnTZRKGHX6eg1W31Gisg1jHpnqArV3MGtuXIQFbjbnerBrwj4wim6B3YctZR4QQuYph9MatVxvTIAgoreiNhAAuHd192rlZtKedfrobnyymd2N8d3eRFHK7jleLgsBsX80ehouZcHD06RPy+70aakvzLdhYlxL7U4oqM2xW7UPlGbbYOTGpSedOHFsFnvlssrbtCcg6tgK0UeDW1u/VQ0qSbIqE7XaX2xh2ZRMF+iKxupHC0LxOUGGmB7ayz4doaDNKkW23CWoHp9Nk1LsHhTCUP07NNiLmfC1oJSEBsCWdNvxKGAXz1JyzwpZjJ0qruv6W2pMJH1dRxcmIif1t2BapGp7y5u5ZjNXidQj5FA2vr02gR+glHxlrmYjcp8NirQ6kyXJ6H61rhOQDzKkN2igKr2ezI9smdiH5ePdARkT+8z92GIbKBmujugW+T2XTM7C8mZZ6hKxCArRUcpNLcYfGWPK3kecZduCxLLDh/jyAxK3bj1W/Al4mrDV9TWvoyEYELsEvBw60ME0mbGrdUjHJFqYFZO+4OI6rrXZEzieaxdzmqU06lwyqc44N7fzXDOuXD62HDZP08MD3ezcnZYrobLq4hZlZWw4by6ipeV1vyOcHYEPpmL4ZG+LYkkhoHUhgWFIPQ1FWBhuea/B+bFheZCN6x6uu4b0NkS4lJfMpTB/4KHe9PEwuxqsSExA3LfC1mDVDRMZTY4ENhbSrMWYN19xMMklRKEtQJZQJqpzcLjllhm0VulV/oJjKeQl63FB4/CwvrA19o7U1qo5TdXsejBNJMB3VHoyenrl8usS8soWhSRAWsHPchjKCeydjpJC7O2LXuDfn+R5fasFuDWbWZTqLVVenUTjp85DAsdGWY0ACs+6cU2y851zo7i/fytra4sVyGHbmJi8kj50ltuA92MCFHepzXa+NAzuK6CE0wLw8tF9cdtmYnhNS3ofL8Q/sK06Kzej1X39TMuDWw699za2xF9iEloxk2Sxmkzail1aCjSwn9zOlxVXIV0DKcKuOFNRNa+I4M2wwNzUw/xjuachvDfe378cWkgjZZggBOfGSde5bnJYZoXtn9Sjb+gfce93lIQjKRhPGj90jUvm4F6IdKIXAtYFbh8PjPYWgq/8Zah+k9veoTVtunGILB5sebaTY6iPPG/01v5LCKAwOh5kmILva2b1Zn4Kda4e8duP5VSbWRpIsgyC7bUpzl99r9wLemrFHr3AJUdOEluHSFHWaRs5otE3d6Y1tOmE5o6kgBbqQc07KUUSOl6qAf7wbLrBJo0114bIm5ZG0bxWh0iHKfnK/soqkVgH6TsHEVthW1vYu3wY+PBqfVyqV+tlESxYJsXYdofaTBMvwPoBzAyOLWbccUQiP/TkNJ6pbo+CxYvXSRmEPBujoHZjydqdjUtq2KbQM2HCCjST5yUZs3FIX1xkOEIry3GlnZW3GDferJO8ZHBufUPKzSUq+DRvMutF0qGmay5bTSIM5GnTXsRGJD0FtQJJw6GJ3RqOiwR6oXR9ipw65Cs/QmG7aETED02zTgPICQ6ovsUmll7Etq4ScOoEpmx+B4eKssHkK5/LhRAVsRxliS/I2XmuvTsSuCYFPf4Jt8gFcKff5hn8X2uc9ozcO6xqGqUrAufk7qDzh5ZcDMy66GjUf5TWq0HAySUub+vEMm1EMCDL5LM0QGyf0nbA9G8sFeIGL1eMQzC7BCC7cJBnhxVCz3zTDS0i4pxSZ8CKEOoWPzzkJiH11y56It7zA9gZr2y2V+Q3LFluUYDMyxoYesS1jAEw2FJmrzBO7A/CqraTCZx5FweR23zQ9COrWgLTnt92QT1UYKmvm09Cxrt23YlP7Tch5g/1MJ2mePyVJsWXr276wNtaUeJxZuLrYKIY2OFWWnjCGxPWmFspDvkzy0A4P/2yFbe7U45xakiLU8fpp3sZ/JS28gg3xmjTtze0x5ENygy1WdzOapGQ5SXk6//0maS7n74S2fVXq8+UzrE7rkO6PF49G3HpIKq0Le4fnJ7ikROd/1wlt9tMPIT+xL0oMJ8ggb06L6O3Y7AU2rLp84QiNNTWXqW/7Udhiy4NZap8WHfBOVu8YsilztFwTe4BqaAyBNqlMbwvk6NOYID+9CGu2IVcbHDgsp6rMmdaayVGvWFt4PIVArvl7s4A/9Gsmi1T/RmyGBnUCCc2a1xjt71BCzJaLU8+XBDtC8r2k2eTpQ2TPFhUFdo/bUBDct5rFUrHZul+U/a9EUkKuj9D4WpJgWMScV5frbVlNUrRMQLLFtmnDw/BMgkuEeUlpk8hWWtryEKwV+HUKi5XFUR5FUXuV46k+WAwEw7zUzisdpDTeYG1JlWKnD7k78shNP+HWRjLDVs4amxyYi4ce6x+43YJC7WREitR1V0fEVl0xab6VbmXCPblDg0JvNTp12JIo7wmx7UCu+OkyZaHTealKaCntdoeLfpDle733uAKidJTx+7HxJUIULSJpVtiwr3/Wj/0vsWHD+ji5kCVJLgxG06fbvYy9lq63Fg9TY0fX9c/HT/eZWD39vsAX0M73D27Ttnr8jI94wzZ27Hif9YX2R0XNWvWENVv65/3hJtZfI+zKUHTb8hRniQ08d199YUtUDE5d024dtv4VJXibn7R4wTd6safnA5q+davd8vNWb7JkG9jGp60q66/2ia1tFFOft/xtMhrnYXjq9XMpNpINtlySYG0aD04+4lnspjNeeLE4E/9CX0Bkw0aD745M0t3I5tjUF7At+5zsAXkNW+b6ZYilwuljcIg+bZ7f1J2XrM1g6RZ7wPrKjqPfSaxo2nZY4M98N2Iz/K7Ht9jjXQjvG9eif0+x0ux+1uC7PTZhi9WWQs9bk57mX4Z0tn3z7m8lzByLe7lcI88XtMvJAz+y3APS9+Q/qNkJd+w2ve/97L7+glKLEthYFEC+6hQet8703WZtTCgNw1lPfHttg9yzILSD+tDAK2uL48UW+we9yzfVCH0p1b8cI73Eck8naSL+ZSLxhfCXpFZ9PykY00nKd2L87C79K4QXO0Ose15x2acicH6Vdm9kGxF5r//6oUJPpBZnO6dFQe1rpVoOE4HzWyS+sSwkJCQkJCQkJCQkJCQkJCQkJCQkJCQkJCQkJCQkJCQkJCT02+j/sqCKFmbiQfsAAAAASUVORK5CYII=;" vertex="1" parent="1">
          <mxGeometry x="304" y="889.9999999999999" width="170" height="66.35" as="geometry" />
        </mxCell>
        <mxCell id="y5FC7I3UabfgmGUV36cR-32" value="Blended CSAT" style="rounded=0;whiteSpace=wrap;html=1;" vertex="1" parent="1">
          <mxGeometry x="197.17" y="1120" width="120" height="60" as="geometry" />
        </mxCell>
        <mxCell id="y5FC7I3UabfgmGUV36cR-33" value="Digital CSAT" style="rounded=0;whiteSpace=wrap;html=1;" vertex="1" parent="1">
          <mxGeometry x="197.17" y="1050" width="120" height="60" as="geometry" />
        </mxCell>
        <mxCell id="y5FC7I3UabfgmGUV36cR-34" value="Survey Data" style="rounded=0;whiteSpace=wrap;html=1;" vertex="1" parent="1">
          <mxGeometry x="327.17" y="1050" width="120" height="60" as="geometry" />
        </mxCell>
        <mxCell id="y5FC7I3UabfgmGUV36cR-35" value="Join&lt;span style=&quot;white-space: pre;&quot;&gt;&#x9;&lt;/span&gt;" style="rounded=0;whiteSpace=wrap;html=1;" vertex="1" parent="1">
          <mxGeometry x="327.17" y="1120" width="120" height="60" as="geometry" />
        </mxCell>
        <mxCell id="y5FC7I3UabfgmGUV36cR-36" value="Use" style="rounded=0;whiteSpace=wrap;html=1;" vertex="1" parent="1">
          <mxGeometry x="461.17" y="1050" width="120" height="60" as="geometry" />
        </mxCell>
        <mxCell id="y5FC7I3UabfgmGUV36cR-38" value="Pay" style="rounded=0;whiteSpace=wrap;html=1;" vertex="1" parent="1">
          <mxGeometry x="461.17" y="1120" width="120" height="60" as="geometry" />
        </mxCell>
        <mxCell id="y5FC7I3UabfgmGUV36cR-39" value="Stay" style="rounded=0;whiteSpace=wrap;html=1;" vertex="1" parent="1">
          <mxGeometry x="197.17" y="1190" width="120" height="60" as="geometry" />
        </mxCell>
        <mxCell id="y5FC7I3UabfgmGUV36cR-40" value="Return" style="rounded=0;whiteSpace=wrap;html=1;" vertex="1" parent="1">
          <mxGeometry x="327.17" y="1190" width="120" height="60" as="geometry" />
        </mxCell>
        <mxCell id="y5FC7I3UabfgmGUV36cR-41" value="Help" style="rounded=0;whiteSpace=wrap;html=1;" vertex="1" parent="1">
          <mxGeometry x="461.17" y="1190" width="120" height="60" as="geometry" />
        </mxCell>
        <mxCell id="y5FC7I3UabfgmGUV36cR-42" value="&lt;b&gt;Consolidated View&lt;/b&gt;" style="text;html=1;align=center;verticalAlign=middle;resizable=0;points=[];autosize=1;strokeColor=none;fillColor=none;" vertex="1" parent="1">
          <mxGeometry x="25" y="1320" width="130" height="30" as="geometry" />
        </mxCell>
      </root>
    </mxGraphModel>
  </diagram>
</mxfile>
